<svg width="41" height="40" viewBox="0 0 41 40" fill="none" xmlns="http://www.w3.org/2000/svg">
<g clip-path="url(#clip0_61_1096)">
<path fill-rule="evenodd" clip-rule="evenodd" d="M9.5532 19.7888C15.3836 17.2486 19.2715 15.574 21.2168 14.7649C26.771 12.4547 27.9251 12.0534 28.6773 12.0401C28.8428 12.0372 29.2127 12.0782 29.4523 12.2726C29.6547 12.4368 29.7103 12.6586 29.737 12.8143C29.7636 12.9699 29.7968 13.3245 29.7704 13.6016C29.4694 16.7641 28.1671 24.4385 27.5045 27.9806C27.2241 29.4793 26.6721 29.9819 26.1377 30.031C24.9762 30.1379 24.0943 29.2635 22.9694 28.5261C21.2091 27.3722 20.2147 26.6539 18.5061 25.528C16.5314 24.2267 17.8115 23.5115 18.9368 22.3427C19.2313 22.0368 24.3487 17.3822 24.4477 16.96C24.4601 16.9072 24.4716 16.7103 24.3547 16.6064C24.2377 16.5024 24.0651 16.538 23.9406 16.5663C23.764 16.6063 20.952 18.465 15.5044 22.1422C14.7063 22.6903 13.9833 22.9574 13.3355 22.9434C12.6214 22.9279 11.2478 22.5396 10.2266 22.2077C8.9741 21.8005 7.97864 21.5853 8.06532 20.8938C8.11047 20.5337 8.60643 20.1653 9.5532 19.7888Z" fill="#007AFF"/>
</g>
<defs>
<clipPath id="clip0_61_1096">
<rect width="40" height="40" fill="white" transform="translate(0.5)"/>
</clipPath>
</defs>
</svg>
